<mxfile host="app.diagrams.net" modified="2023-04-23T09:32:05.852Z" agent="Mozilla/5.0 (Windows NT 10.0; Win64; x64) AppleWebKit/537.36 (KHTML, like Gecko) Chrome/114.0.0.0 Safari/537.36" etag="Oj989oAxKcwMwDdK3Vcp" version="21.2.1" type="github">
  <diagram name="第 1 页" id="mLH5sHVKbXr3XK0zb8Wn">
    <mxGraphModel dx="3760" dy="1644" grid="1" gridSize="10" guides="1" tooltips="1" connect="1" arrows="1" fold="1" page="1" pageScale="1" pageWidth="1800" pageHeight="1600" math="0" shadow="0">
      <root>
        <mxCell id="0" />
        <mxCell id="1" parent="0" />
        <mxCell id="VWPSn8c2lPG5zts_rKaY-1" value="&lt;font face=&quot;Georgia&quot; style=&quot;font-size: 36px;&quot;&gt;&lt;b style=&quot;&quot;&gt;&lt;br&gt;Spring MVC（对应模块：spring-webmvc）&lt;/b&gt;&lt;/font&gt;" style="rounded=0;whiteSpace=wrap;html=1;sketch=1;curveFitting=1;jiggle=2;fillColor=#f9f7ed;strokeColor=#36393d;verticalAlign=top;" vertex="1" parent="1">
          <mxGeometry x="80" y="80" width="1640" height="970" as="geometry" />
        </mxCell>
        <mxCell id="VWPSn8c2lPG5zts_rKaY-2" value="&lt;font color=&quot;#3c2c1e&quot; style=&quot;font-size: 36px;&quot;&gt;DispatcherServlet&lt;/font&gt;" style="rounded=0;whiteSpace=wrap;html=1;sketch=1;curveFitting=1;jiggle=2;fillColor=#ffe6cc;strokeColor=#d79b00;fontStyle=1" vertex="1" parent="1">
          <mxGeometry x="200" y="240" width="400" height="80" as="geometry" />
        </mxCell>
        <mxCell id="VWPSn8c2lPG5zts_rKaY-3" value="&lt;font color=&quot;#3c2c1e&quot; style=&quot;font-size: 36px;&quot;&gt;Filters&lt;/font&gt;" style="rounded=0;whiteSpace=wrap;html=1;sketch=1;curveFitting=1;jiggle=2;fillColor=#f8cecc;strokeColor=#b85450;fontStyle=1" vertex="1" parent="1">
          <mxGeometry x="700" y="240" width="400" height="80" as="geometry" />
        </mxCell>
        <mxCell id="VWPSn8c2lPG5zts_rKaY-4" value="&lt;font color=&quot;#3c2c1e&quot; style=&quot;font-size: 36px;&quot;&gt;Annotated Controller&lt;/font&gt;" style="rounded=0;whiteSpace=wrap;html=1;sketch=1;curveFitting=1;jiggle=2;fillColor=#f8cecc;strokeColor=#b85450;fontStyle=1" vertex="1" parent="1">
          <mxGeometry x="1200" y="240" width="400" height="80" as="geometry" />
        </mxCell>
        <mxCell id="VWPSn8c2lPG5zts_rKaY-5" value="&lt;font color=&quot;#3c2c1e&quot; style=&quot;font-size: 36px;&quot;&gt;Functional Endpoints&lt;/font&gt;" style="rounded=0;whiteSpace=wrap;html=1;sketch=1;curveFitting=1;jiggle=2;fillColor=#f8cecc;strokeColor=#b85450;fontStyle=1" vertex="1" parent="1">
          <mxGeometry x="200" y="400" width="400" height="80" as="geometry" />
        </mxCell>
        <mxCell id="VWPSn8c2lPG5zts_rKaY-6" value="&lt;font color=&quot;#3c2c1e&quot;&gt;&lt;span style=&quot;font-size: 36px;&quot;&gt;URI Links&lt;/span&gt;&lt;/font&gt;" style="rounded=0;whiteSpace=wrap;html=1;sketch=1;curveFitting=1;jiggle=2;fillColor=#f8cecc;strokeColor=#b85450;fontStyle=1" vertex="1" parent="1">
          <mxGeometry x="700" y="400" width="400" height="80" as="geometry" />
        </mxCell>
        <mxCell id="VWPSn8c2lPG5zts_rKaY-7" value="&lt;font color=&quot;#3c2c1e&quot;&gt;&lt;span style=&quot;font-size: 36px;&quot;&gt;Asynchronous Requests&lt;/span&gt;&lt;/font&gt;" style="rounded=0;whiteSpace=wrap;html=1;sketch=1;curveFitting=1;jiggle=2;fillColor=#f8cecc;strokeColor=#b85450;fontStyle=1" vertex="1" parent="1">
          <mxGeometry x="1200" y="400" width="400" height="80" as="geometry" />
        </mxCell>
        <mxCell id="VWPSn8c2lPG5zts_rKaY-8" value="&lt;font color=&quot;#3c2c1e&quot;&gt;&lt;span style=&quot;font-size: 36px;&quot;&gt;CORS&lt;/span&gt;&lt;/font&gt;" style="rounded=0;whiteSpace=wrap;html=1;sketch=1;curveFitting=1;jiggle=2;fillColor=#f8cecc;strokeColor=#b85450;fontStyle=1" vertex="1" parent="1">
          <mxGeometry x="200" y="560" width="400" height="80" as="geometry" />
        </mxCell>
        <mxCell id="VWPSn8c2lPG5zts_rKaY-9" value="&lt;font color=&quot;#3c2c1e&quot;&gt;&lt;span style=&quot;font-size: 36px;&quot;&gt;Error Responses&lt;/span&gt;&lt;/font&gt;" style="rounded=0;whiteSpace=wrap;html=1;sketch=1;curveFitting=1;jiggle=2;fillColor=#f8cecc;strokeColor=#b85450;fontStyle=1" vertex="1" parent="1">
          <mxGeometry x="700" y="560" width="400" height="80" as="geometry" />
        </mxCell>
        <mxCell id="VWPSn8c2lPG5zts_rKaY-10" value="&lt;font color=&quot;#3c2c1e&quot;&gt;&lt;span style=&quot;font-size: 36px;&quot;&gt;Web Security&lt;/span&gt;&lt;/font&gt;" style="rounded=0;whiteSpace=wrap;html=1;sketch=1;curveFitting=1;jiggle=2;fillColor=#f8cecc;strokeColor=#b85450;fontStyle=1" vertex="1" parent="1">
          <mxGeometry x="1200" y="560" width="400" height="80" as="geometry" />
        </mxCell>
        <mxCell id="VWPSn8c2lPG5zts_rKaY-11" value="&lt;font color=&quot;#3c2c1e&quot;&gt;&lt;span style=&quot;font-size: 36px;&quot;&gt;HTTP Caching&lt;/span&gt;&lt;/font&gt;" style="rounded=0;whiteSpace=wrap;html=1;sketch=1;curveFitting=1;jiggle=2;fillColor=#f8cecc;strokeColor=#b85450;fontStyle=1" vertex="1" parent="1">
          <mxGeometry x="200" y="720" width="400" height="80" as="geometry" />
        </mxCell>
        <mxCell id="VWPSn8c2lPG5zts_rKaY-12" value="&lt;font color=&quot;#3c2c1e&quot;&gt;&lt;span style=&quot;font-size: 36px;&quot;&gt;View Technologies&lt;/span&gt;&lt;/font&gt;" style="rounded=0;whiteSpace=wrap;html=1;sketch=1;curveFitting=1;jiggle=2;fillColor=#f8cecc;strokeColor=#b85450;fontStyle=1" vertex="1" parent="1">
          <mxGeometry x="700" y="720" width="400" height="80" as="geometry" />
        </mxCell>
        <mxCell id="VWPSn8c2lPG5zts_rKaY-13" value="&lt;font color=&quot;#3c2c1e&quot;&gt;&lt;span style=&quot;font-size: 36px;&quot;&gt;MVC Config&lt;/span&gt;&lt;/font&gt;" style="rounded=0;whiteSpace=wrap;html=1;sketch=1;curveFitting=1;jiggle=2;fillColor=#f8cecc;strokeColor=#b85450;fontStyle=1" vertex="1" parent="1">
          <mxGeometry x="1200" y="720" width="400" height="80" as="geometry" />
        </mxCell>
        <mxCell id="VWPSn8c2lPG5zts_rKaY-14" value="&lt;font color=&quot;#3c2c1e&quot;&gt;&lt;span style=&quot;font-size: 36px;&quot;&gt;HTTP/2&lt;/span&gt;&lt;/font&gt;" style="rounded=0;whiteSpace=wrap;html=1;sketch=1;curveFitting=1;jiggle=2;fillColor=#f8cecc;strokeColor=#b85450;fontStyle=1" vertex="1" parent="1">
          <mxGeometry x="700" y="880" width="400" height="80" as="geometry" />
        </mxCell>
        <mxCell id="VWPSn8c2lPG5zts_rKaY-15" value="&lt;font style=&quot;font-size: 48px;&quot; color=&quot;#3c2c1e&quot;&gt;Servlet API&lt;/font&gt;" style="rounded=0;whiteSpace=wrap;html=1;sketch=1;curveFitting=1;jiggle=2;fillColor=#1ba1e2;strokeColor=#006EAF;fontStyle=1;fontColor=#ffffff;" vertex="1" parent="1">
          <mxGeometry x="80" y="1200" width="1640" height="240" as="geometry" />
        </mxCell>
        <mxCell id="VWPSn8c2lPG5zts_rKaY-17" value="" style="shape=doubleArrow;direction=south;whiteSpace=wrap;html=1;sketch=1;curveFitting=1;jiggle=2;fillColor=#d80073;fontColor=#ffffff;strokeColor=#A50040;" vertex="1" parent="1">
          <mxGeometry x="865" y="1060" width="70" height="140" as="geometry" />
        </mxCell>
        <mxCell id="VWPSn8c2lPG5zts_rKaY-18" value="&lt;font style=&quot;font-size: 36px;&quot;&gt;&lt;b&gt;https://docs.spring.io/spring-framework/docs/6.1.x-SNAPSHOT/reference/html/web.html#mvc&lt;/b&gt;&lt;/font&gt;" style="text;html=1;strokeColor=none;fillColor=none;align=center;verticalAlign=middle;whiteSpace=wrap;rounded=0;fontColor=#3C2C1E;" vertex="1" parent="1">
          <mxGeometry x="80" y="1440" width="1640" height="80" as="geometry" />
        </mxCell>
      </root>
    </mxGraphModel>
  </diagram>
</mxfile>
